<?xml version="1.0" encoding="utf-8"?>
<!-- Generator: Adobe Illustrator 16.0.0, SVG Export Plug-In . SVG Version: 6.00 Build 0)  -->
<!DOCTYPE svg PUBLIC "-//W3C//DTD SVG 1.1//EN" "http://www.w3.org/Graphics/SVG/1.1/DTD/svg11.dtd">
<svg version="1.1" id="Capa_1" xmlns="http://www.w3.org/2000/svg" xmlns:xlink="http://www.w3.org/1999/xlink" x="0px" y="0px"
	 width="31.805px" height="29.618px" viewBox="0.001 1.094 31.805 29.618" enable-background="new 0.001 1.094 31.805 29.618"
	 xml:space="preserve">
<g>
	<g>
		<path fill="#FFFFFF" d="M1.286,12.465c-0.685,0.264-1.171,0.879-1.268,1.606s0.213,1.449,0.806,1.88l6.492,4.724L30.374,2.534
			L9.985,22.621l8.875,6.458c0.563,0.41,1.293,0.533,1.964,0.33c0.67-0.204,1.204-0.713,1.444-1.368l9.494-25.985
			c0.096-0.265,0.027-0.56-0.173-0.757c-0.198-0.196-0.493-0.259-0.758-0.157L1.286,12.465z"/>
		<path fill="#FFFFFF" d="M5.774,22.246l0.055,0.301l1.26,6.89c0.095,0.512,0.437,0.94,0.912,1.147
			c0.477,0.206,1.025,0.162,1.461-0.119c1.755-1.132,4.047-2.634,3.985-2.722L5.774,22.246z"/>
	</g>
</g>
</svg>
